<svg width="16" height="17" viewBox="0 0 16 17" fill="none" xmlns="http://www.w3.org/2000/svg">
<g clip-path="url(#clip0_1_2881)">
<path d="M8 0.5C3.58853 0.5 0 4.08853 0 8.5C0 12.9115 3.58853 16.5 8 16.5C12.4115 16.5 16 12.9108 16 8.5C16 4.08916 12.4115 0.5 8 0.5ZM8 15.2607C4.27266 15.2607 1.23934 12.228 1.23934 8.5C1.23934 4.77203 4.27266 1.73934 8 1.73934C11.7273 1.73934 14.7607 4.77203 14.7607 8.5C14.7607 12.228 11.728 15.2607 8 15.2607Z" fill="white"/>
<path d="M11.0984 7.82457H8.61973V5.34588C8.61973 5.00382 8.34273 4.7262 8.00004 4.7262C7.65736 4.7262 7.38036 5.00382 7.38036 5.34588V7.82457H4.90167C4.55898 7.82457 4.28198 8.1022 4.28198 8.44426C4.28198 8.78632 4.55898 9.06395 4.90167 9.06395H7.38036V11.5426C7.38036 11.8847 7.65736 12.1623 8.00004 12.1623C8.34273 12.1623 8.61973 11.8847 8.61973 11.5426V9.06395H11.0984C11.4411 9.06395 11.7181 8.78632 11.7181 8.44426C11.7181 8.1022 11.4411 7.82457 11.0984 7.82457Z" fill="white"/>
</g>
<defs>
<clipPath id="clip0_1_2881">
<rect width="16" height="16" fill="white" transform="translate(0 0.5)"/>
</clipPath>
</defs>
</svg>
