<svg width="38" height="38" viewBox="0 0 38 38" fill="none" xmlns="http://www.w3.org/2000/svg">
<path d="M19 0C8.52388 0 0 8.52388 0 19C0 29.4761 8.52388 38 19 38C29.4761 38 38 29.4761 38 19C38 8.52388 29.4761 0 19 0ZM19 35.625C9.8325 35.625 2.375 28.1675 2.375 19C2.375 9.8325 9.8325 2.375 19 2.375C28.1675 2.375 35.625 9.8325 35.625 19C35.625 28.1675 28.1675 35.625 19 35.625Z" fill="#5C5C5C"/>
<path d="M19 17.8125C17.0691 17.8125 15.4375 16.7247 15.4375 15.4375C15.4375 14.1502 17.0691 13.0625 19 13.0625C20.0925 13.0625 21.1043 13.4045 21.774 13.9983C21.8905 14.102 22.0264 14.1818 22.1738 14.233C22.3212 14.2842 22.4773 14.3057 22.6331 14.2965C22.7889 14.2872 22.9413 14.2473 23.0816 14.179C23.2219 14.1107 23.3474 14.0154 23.4507 13.8985C23.8877 13.4093 23.8426 12.6587 23.351 12.2217C22.5197 11.4831 21.4035 10.9844 20.1875 10.7872V9.5C20.1875 8.8445 19.6555 8.3125 19 8.3125C18.3445 8.3125 17.8125 8.8445 17.8125 9.5V10.7825C15.105 11.2242 13.0625 13.1432 13.0625 15.4375C13.0625 18.0571 15.7272 20.1875 19 20.1875C20.9309 20.1875 22.5625 21.2753 22.5625 22.5625C22.5625 23.8497 20.9309 24.9375 19 24.9375C17.9075 24.9375 16.8957 24.5955 16.226 24.0017C15.7367 23.5647 14.9862 23.6075 14.5492 24.1015C14.1122 24.5907 14.1574 25.3412 14.649 25.7782C15.4803 26.5193 16.5965 27.0156 17.8125 27.2151V28.5C17.8125 29.1555 18.3445 29.6875 19 29.6875C19.6555 29.6875 20.1875 29.1555 20.1875 28.5V27.2175C22.895 26.7757 24.9375 24.8568 24.9375 22.5625C24.9375 19.9429 22.2727 17.8125 19 17.8125Z" fill="#5C5C5C"/>
</svg>
