<svg width="30" height="27" viewBox="0 0 30 27" fill="none" xmlns="http://www.w3.org/2000/svg">
<path d="M29.1545 20.0563C28.9187 19.4655 28.2486 19.1777 27.6577 19.4135C27.0669 19.6494 26.7791 20.3195 27.0149 20.9103C27.3148 21.6616 27.2165 22.5193 26.7519 23.2049C26.2871 23.8909 25.5429 24.2844 24.7101 24.2844H4.78454C3.87617 24.2844 3.06952 23.8104 2.62665 23.0164C2.18309 22.221 2.20394 21.2837 2.6824 20.509L12.6452 4.37857C13.0988 3.64408 13.8846 3.20559 14.7473 3.20559C15.61 3.20559 16.3958 3.64408 16.8495 4.37857L24.2178 16.3084C24.5521 16.8497 25.2619 17.0176 25.803 16.6831C26.3442 16.3489 26.5121 15.6391 26.1777 15.0978L18.8093 3.16798C17.9329 1.749 16.4144 0.901855 14.7473 0.901855C13.0801 0.901855 11.5616 1.74906 10.6852 3.16798L0.722411 19.2984C-0.201225 20.794 -0.241428 22.6034 0.614761 24.1385C1.47026 25.6724 3.02902 26.5881 4.78454 26.5881H24.7101C26.3193 26.5881 27.7586 25.8259 28.659 24.4971C29.5527 23.1782 29.7379 21.5181 29.1545 20.0563Z" fill="#40D1FD"/>
<path d="M14.7478 22.0383C15.384 22.0383 15.8997 21.5227 15.8997 20.8865C15.8997 20.2503 15.384 19.7347 14.7478 19.7347H14.7472C14.1111 19.7347 13.5957 20.2503 13.5957 20.8865C13.5957 21.5227 14.1116 22.0383 14.7478 22.0383ZM15.8991 16.855V8.3889C15.8991 7.75273 15.3835 7.23706 14.7473 7.23706C14.1111 7.23706 13.5955 7.75273 13.5955 8.3889V16.855C13.5955 17.4912 14.1111 18.0068 14.7473 18.0068C15.3835 18.0068 15.8991 17.4912 15.8991 16.855Z" fill="#40D1FD"/>
</svg>
