<svg width="30" height="30" viewBox="0 0 30 30" fill="none" xmlns="http://www.w3.org/2000/svg">
<path d="M21.292 11.0588C20.8127 10.579 20.0337 10.579 19.5545 11.0588L14.2796 16.3331L12.0765 14.1306C11.5973 13.6508 10.8183 13.6508 10.3391 14.1306C9.85929 14.6104 9.85929 15.3882 10.3391 15.868L13.4109 18.9398C13.6505 19.18 13.9651 19.2998 14.2796 19.2998C14.5942 19.2998 14.9087 19.18 15.1483 18.9398L21.292 12.7962C21.7718 12.3164 21.7718 11.5386 21.292 11.0588Z" fill="#42B844"/>
<path d="M28.4093 13.7716C27.7311 13.7716 27.1806 14.3221 27.1806 15.0004C27.1806 21.7755 21.6685 27.2876 14.8934 27.2876C8.11818 27.2876 2.60613 21.7755 2.60613 15.0004C2.60613 8.22518 8.11818 2.71312 14.8934 2.71312C18.1919 2.71312 21.2883 4.00205 23.613 6.34277C24.0904 6.82505 24.8688 6.8275 25.3504 6.34892C25.8321 5.87094 25.8345 5.09316 25.3566 4.6115C22.5674 1.80264 18.8511 0.255676 14.8934 0.255676C6.7629 0.255676 0.148682 6.86989 0.148682 15.0004C0.148682 23.1308 6.7629 29.745 14.8934 29.745C23.0238 29.745 29.638 23.1308 29.638 15.0004C29.638 14.3221 29.0876 13.7716 28.4093 13.7716Z" fill="#42B844"/>
</svg>
