<svg width="42" height="42" viewBox="0 0 42 42" fill="none" xmlns="http://www.w3.org/2000/svg">
<path d="M30.1123 15.3878C29.4298 14.7044 28.3203 14.7044 27.6378 15.3878L20.125 22.8996L16.9873 19.7628C16.3048 19.0794 15.1953 19.0794 14.5128 19.7628C13.8294 20.4462 13.8294 21.5539 14.5128 22.2373L18.8878 26.6123C19.229 26.9544 19.677 27.125 20.125 27.125C20.573 27.125 21.021 26.9544 21.3623 26.6123L30.1123 17.8623C30.7957 17.1789 30.7957 16.0712 30.1123 15.3878Z" fill="#42B844"/>
<path d="M40.25 19.25C39.284 19.25 38.5 20.034 38.5 21C38.5 30.6495 30.6495 38.5 21 38.5C11.3505 38.5 3.5 30.6495 3.5 21C3.5 11.3505 11.3505 3.5 21 3.5C25.6979 3.5 30.1079 5.33575 33.4189 8.6695C34.0988 9.35637 35.2074 9.35987 35.8934 8.67825C36.5794 7.9975 36.5829 6.88975 35.9021 6.20375C31.9296 2.20325 26.6367 0 21 0C9.42025 0 0 9.42025 0 21C0 32.5798 9.42025 42 21 42C32.5798 42 42 32.5798 42 21C42 20.034 41.216 19.25 40.25 19.25Z" fill="#42B844"/>
</svg>
