<svg width="536" height="90" viewBox="0 0 536 90" fill="none" xmlns="http://www.w3.org/2000/svg">
<path d="M22.5 0L17.1 9.02503H0V81.2253H13.5L8.1 89.3478H24.3L29.7 81.2253H45V9.02503H32.4L36.9 0H22.5Z" fill="black"/>
<path d="M36.5217 22.8262H0V81.2263H13.4995L8.09699 89.3479H24.4565L30 81.2263H45V65.8697H9.78261L36.5217 22.8262Z" fill="#FF9900"/>
<path d="M87.7711 60.1169C89.0828 60.1169 90.0045 59.7425 90.5362 58.9938C91.068 58.245 91.3339 57.4071 91.3339 56.4801V31.9851C91.3339 31.0937 91.068 30.2736 90.5362 29.5249C90.0045 28.7761 89.0828 28.4017 87.7711 28.4017H75.3279L75.2748 63.2724C75.2748 64.0568 74.9734 64.6808 74.3708 65.1443C73.7681 65.6078 73.0236 65.8396 72.1374 65.8396C70.0458 65.8396 69 64.9838 69 63.2724V26.209C69 24.9254 69.3191 24.0697 69.9572 23.6418C70.6307 23.2139 71.4284 23 72.3501 23H89.1005C90.0222 23 90.9794 23.1961 91.972 23.5883C92.9646 23.9805 93.9218 24.4797 94.8435 25.0858H94.7903C95.712 25.7633 96.421 26.6546 96.9174 27.7599C97.4137 28.8296 97.6618 30.0775 97.6618 31.5037V56.908C97.6618 59.796 96.7047 61.9532 94.7903 63.3794C93.8686 64.0568 92.9114 64.5916 91.9188 64.9838C90.9617 65.3404 90.0222 65.5187 89.1005 65.5187H80.1669C79.5643 65.5187 79.0857 65.2691 78.7312 64.7699C78.4121 64.2707 78.2526 63.6111 78.2526 62.791C78.2526 61.0083 79.0148 60.1169 80.5392 60.1169H87.7711Z" fill="black"/>
<path d="M125.815 23C126.736 23 127.694 23.1961 128.686 23.5883C129.679 23.9805 130.636 24.4797 131.558 25.0858H131.505C132.426 25.7633 133.135 26.6546 133.632 27.7599C134.128 28.8296 134.376 30.0775 134.376 31.5037V56.908C134.376 59.796 133.419 61.9532 131.505 63.3794C130.583 64.0568 129.626 64.5916 128.633 64.9838C127.676 65.3404 126.736 65.5187 125.815 65.5187H114.222C113.301 65.5187 112.343 65.3404 111.351 64.9838C110.394 64.5916 109.454 64.0568 108.533 63.3794C107.611 62.6663 106.902 61.7927 106.406 60.7587C105.909 59.6891 105.661 58.4055 105.661 56.908V31.5037C105.661 30.0775 105.909 28.8296 106.406 27.7599C106.902 26.6546 107.611 25.7633 108.533 25.0858H108.479C109.401 24.4797 110.358 23.9805 111.351 23.5883C112.343 23.1961 113.301 23 114.222 23H125.815ZM124.485 60.1169C125.797 60.1169 126.719 59.7425 127.25 58.9938C127.782 58.245 128.048 57.4071 128.048 56.4801V31.9851C128.048 31.0937 127.782 30.2736 127.25 29.5249C126.719 28.7761 125.797 28.4017 124.485 28.4017H115.552C114.24 28.4017 113.318 28.7761 112.787 29.5249C112.255 30.2736 111.989 31.0937 111.989 31.9851V56.4801C111.989 57.4071 112.255 58.245 112.787 58.9938C113.318 59.7425 114.24 60.1169 115.552 60.1169H124.485Z" fill="black"/>
<path d="M171.09 56.908C171.09 59.796 170.133 61.9532 168.219 63.3794C167.297 64.0568 166.34 64.5916 165.347 64.9838C164.39 65.3404 163.451 65.5187 162.529 65.5187H150.937C150.015 65.5187 149.058 65.3404 148.065 64.9838C147.108 64.5916 146.168 64.0568 145.247 63.3794C144.325 62.6663 143.616 61.7927 143.12 60.7587C142.623 59.6891 142.375 58.4055 142.375 56.908V31.5037C142.375 30.0775 142.623 28.8296 143.12 27.7599C143.616 26.6546 144.325 25.7633 145.247 25.0858H145.194C146.115 24.4797 147.072 23.9805 148.065 23.5883C149.058 23.1961 150.015 23 150.937 23H162.529C163.451 23 164.408 23.1961 165.4 23.5883C166.393 23.9805 167.35 24.4797 168.272 25.0858H168.219C169.14 25.7633 169.849 26.6546 170.346 27.7599C170.842 28.8296 171.09 30.0775 171.09 31.5037V35.194C171.09 36.9055 170.027 37.7612 167.9 37.7612C165.808 37.7612 164.762 36.9055 164.762 35.194V31.9851C164.762 31.0937 164.496 30.2736 163.965 29.5249C163.433 28.7761 162.511 28.4017 161.2 28.4017H152.266C150.954 28.4017 150.033 28.7761 149.501 29.5249C148.969 30.2736 148.703 31.0937 148.703 31.9851V56.4801C148.703 57.4071 148.969 58.245 149.501 58.9938C150.033 59.7425 150.954 60.1169 152.266 60.1169H161.2C162.511 60.1169 163.433 59.7425 163.965 58.9938C164.496 58.245 164.762 57.4071 164.762 56.4801V53.3781C164.762 51.7023 165.808 50.8644 167.9 50.8644C170.027 50.8644 171.09 51.7023 171.09 53.3781V56.908Z" fill="black"/>
<path d="M192.977 63.3259C192.977 65.0373 191.914 65.893 189.787 65.893C187.695 65.893 186.649 65.0373 186.649 63.3259V28.4017H177.343C176.067 28.4017 175.394 27.4925 175.323 25.6741C175.323 23.8914 175.996 23 177.343 23H202.283C203.63 23 204.268 23.8914 204.197 25.6741C204.197 27.4925 203.559 28.4017 202.283 28.4017H192.977V63.3259Z" fill="black"/>
<path d="M229.051 23C229.972 23 230.93 23.1961 231.922 23.5883C232.915 23.9805 233.872 24.4797 234.794 25.0858H234.741C235.662 25.7633 236.371 26.6546 236.868 27.7599C237.364 28.8296 237.612 30.0775 237.612 31.5037V56.908C237.612 59.796 236.655 61.9532 234.741 63.3794C233.819 64.0568 232.862 64.5916 231.869 64.9838C230.912 65.3404 229.972 65.5187 229.051 65.5187H217.458C216.537 65.5187 215.58 65.3404 214.587 64.9838C213.63 64.5916 212.69 64.0568 211.769 63.3794C210.847 62.6663 210.138 61.7927 209.642 60.7587C209.145 59.6891 208.897 58.4055 208.897 56.908V31.5037C208.897 30.0775 209.145 28.8296 209.642 27.7599C210.138 26.6546 210.847 25.7633 211.769 25.0858H211.715C212.637 24.4797 213.594 23.9805 214.587 23.5883C215.58 23.1961 216.537 23 217.458 23H229.051ZM227.721 60.1169C229.033 60.1169 229.955 59.7425 230.487 58.9938C231.018 58.245 231.284 57.4071 231.284 56.4801V31.9851C231.284 31.0937 231.018 30.2736 230.487 29.5249C229.955 28.7761 229.033 28.4017 227.721 28.4017H218.788C217.476 28.4017 216.554 28.7761 216.023 29.5249C215.491 30.2736 215.225 31.0937 215.225 31.9851V56.4801C215.225 57.4071 215.491 58.245 216.023 58.9938C216.554 59.7425 217.476 60.1169 218.788 60.1169H227.721Z" fill="black"/>
<path d="M260.713 47.8694H256.619C256.016 47.8694 255.537 47.6376 255.183 47.1741C254.864 46.675 254.704 46.0153 254.704 45.1953C254.704 43.3769 255.449 42.4677 256.938 42.4677H263.159C264.471 42.4677 265.393 42.0933 265.925 41.3445C266.456 40.5958 266.722 39.7757 266.722 38.8843V31.9851C266.722 31.0937 266.456 30.2736 265.925 29.5249C265.393 28.7761 264.471 28.4017 263.159 28.4017H251.939V63.2724C251.939 64.9838 250.893 65.8396 248.802 65.8396C246.71 65.8396 245.664 64.9838 245.664 63.2724V26.209C245.664 24.9254 245.984 24.0697 246.622 23.6418C247.295 23.2139 248.093 23 249.015 23H264.489C265.41 23 266.368 23.1961 267.36 23.5883C268.353 23.9805 269.31 24.4797 270.232 25.0858H270.179C271.1 25.7633 271.809 26.6546 272.306 27.7599C272.802 28.8296 273.05 30.0775 273.05 31.5037V39.3122C273.05 42.2002 272.093 44.3574 270.179 45.7836C269.789 46.0688 269.363 46.3362 268.902 46.5858C268.477 46.8354 268.034 47.085 267.573 47.3346L276.081 61.454C276.187 61.6323 276.294 61.864 276.4 62.1493C276.507 62.4345 276.56 62.6663 276.56 62.8445C276.56 63.7002 275.957 64.5203 274.752 65.3047V65.2512C273.936 65.7504 273.245 66 272.678 66C271.862 66 271.207 65.59 270.71 64.7699L270.764 64.8234L260.713 47.8694Z" fill="black"/>
<path d="M317.592 41.0236C318.514 41.0236 319.471 41.2197 320.463 41.6119C321.456 42.0041 322.413 42.5211 323.335 43.1629H323.282C324.204 43.8047 324.913 44.6783 325.409 45.7836C325.905 46.8889 326.153 48.1546 326.153 49.5808V56.908C326.153 59.796 325.196 61.9532 323.282 63.3794C322.36 64.0568 321.403 64.5916 320.41 64.9838C319.453 65.3404 318.514 65.5187 317.592 65.5187H306C305.078 65.5187 304.121 65.3404 303.128 64.9838C302.171 64.5916 301.232 64.0568 300.31 63.3794C298.395 61.9532 297.438 59.796 297.438 56.908V53.3781C297.438 51.7023 298.484 50.8644 300.576 50.8644C302.703 50.8644 303.766 51.7023 303.766 53.3781V56.4801C303.766 57.4071 304.032 58.245 304.564 58.9938C305.096 59.7425 306.017 60.1169 307.329 60.1169H316.263C317.574 60.1169 318.496 59.7425 319.028 58.9938C319.56 58.245 319.825 57.4071 319.825 56.4801V50.0087C319.825 49.1173 319.56 48.2973 319.028 47.5485C318.496 46.7641 317.574 46.3719 316.263 46.3719H306C304.156 46.3719 302.26 45.6944 300.31 44.3396C298.395 42.842 297.438 40.6849 297.438 37.8682V31.5037C297.438 30.0775 297.686 28.8296 298.183 27.7599C298.679 26.6546 299.388 25.7633 300.31 25.0858H300.257C301.178 24.4797 302.136 23.9805 303.128 23.5883C304.121 23.1961 305.078 23 306 23H317.592C318.514 23 319.471 23.1961 320.463 23.5883C321.456 23.9805 322.413 24.4797 323.335 25.0858H323.282C324.204 25.7633 324.913 26.6546 325.409 27.7599C325.905 28.8296 326.153 30.0775 326.153 31.5037V34.6592C326.153 36.335 325.09 37.1729 322.963 37.1729C320.871 37.1729 319.825 36.335 319.825 34.6592V31.9851C319.825 31.0937 319.56 30.2736 319.028 29.5249C318.496 28.7761 317.574 28.4017 316.263 28.4017H307.329C306.017 28.4017 305.096 28.7761 304.564 29.5249C304.032 30.2736 303.766 31.0937 303.766 31.9851V37.4403C303.766 38.3673 304.032 39.2052 304.564 39.954C305.096 40.6671 306.017 41.0236 307.329 41.0236H317.592Z" fill="black"/>
<path d="M363.178 56.908C363.178 59.796 362.221 61.9532 360.306 63.3794C359.385 64.0568 358.427 64.5916 357.435 64.9838C356.478 65.3404 355.538 65.5187 354.617 65.5187H343.024C342.102 65.5187 341.145 65.3404 340.153 64.9838C339.196 64.5916 338.256 64.0568 337.334 63.3794C336.413 62.6663 335.704 61.7927 335.207 60.7587C334.711 59.6891 334.463 58.4055 334.463 56.908V31.5037C334.463 30.0775 334.711 28.8296 335.207 27.7599C335.704 26.6546 336.413 25.7633 337.334 25.0858H337.281C338.203 24.4797 339.16 23.9805 340.153 23.5883C341.145 23.1961 342.102 23 343.024 23H354.617C355.538 23 356.495 23.1961 357.488 23.5883C358.481 23.9805 359.438 24.4797 360.36 25.0858H360.306C361.228 25.7633 361.937 26.6546 362.433 27.7599C362.93 28.8296 363.178 30.0775 363.178 31.5037V35.194C363.178 36.9055 362.114 37.7612 359.987 37.7612C357.896 37.7612 356.85 36.9055 356.85 35.194V31.9851C356.85 31.0937 356.584 30.2736 356.052 29.5249C355.521 28.7761 354.599 28.4017 353.287 28.4017H344.354C343.042 28.4017 342.12 28.7761 341.588 29.5249C341.057 30.2736 340.791 31.0937 340.791 31.9851V56.4801C340.791 57.4071 341.057 58.245 341.588 58.9938C342.12 59.7425 343.042 60.1169 344.354 60.1169H353.287C354.599 60.1169 355.521 59.7425 356.052 58.9938C356.584 58.245 356.85 57.4071 356.85 56.4801V53.3781C356.85 51.7023 357.896 50.8644 359.987 50.8644C362.114 50.8644 363.178 51.7023 363.178 53.3781V56.908Z" fill="black"/>
<path d="M390.967 23C391.889 23 392.846 23.1961 393.839 23.5883C394.831 23.9805 395.789 24.4797 396.71 25.0858H396.657C397.579 25.7633 398.288 26.6546 398.784 27.7599C399.28 28.8296 399.529 30.0775 399.529 31.5037V56.908C399.529 59.796 398.571 61.9532 396.657 63.3794C395.735 64.0568 394.778 64.5916 393.786 64.9838C392.828 65.3404 391.889 65.5187 390.967 65.5187H379.375C378.453 65.5187 377.496 65.3404 376.503 64.9838C375.546 64.5916 374.607 64.0568 373.685 63.3794C372.763 62.6663 372.054 61.7927 371.558 60.7587C371.062 59.6891 370.814 58.4055 370.814 56.908V31.5037C370.814 30.0775 371.062 28.8296 371.558 27.7599C372.054 26.6546 372.763 25.7633 373.685 25.0858H373.632C374.554 24.4797 375.511 23.9805 376.503 23.5883C377.496 23.1961 378.453 23 379.375 23H390.967ZM389.638 60.1169C390.95 60.1169 391.871 59.7425 392.403 58.9938C392.935 58.245 393.201 57.4071 393.201 56.4801V31.9851C393.201 31.0937 392.935 30.2736 392.403 29.5249C391.871 28.7761 390.95 28.4017 389.638 28.4017H380.704C379.393 28.4017 378.471 28.7761 377.939 29.5249C377.407 30.2736 377.142 31.0937 377.142 31.9851V56.4801C377.142 57.4071 377.407 58.245 377.939 58.9938C378.471 59.7425 379.393 60.1169 380.704 60.1169H389.638Z" fill="black"/>
<path d="M427.681 23C428.603 23 429.56 23.1961 430.553 23.5883C431.546 23.9805 432.503 24.4797 433.424 25.0858H433.371C434.293 25.7633 435.002 26.6546 435.498 27.7599C435.995 28.8296 436.243 30.0775 436.243 31.5037V56.908C436.243 59.796 435.286 61.9532 433.371 63.3794C432.45 64.0568 431.492 64.5916 430.5 64.9838C429.543 65.3404 428.603 65.5187 427.681 65.5187H416.089C415.167 65.5187 414.21 65.3404 413.218 64.9838C412.26 64.5916 411.321 64.0568 410.399 63.3794C409.478 62.6663 408.769 61.7927 408.272 60.7587C407.776 59.6891 407.528 58.4055 407.528 56.908V31.5037C407.528 30.0775 407.776 28.8296 408.272 27.7599C408.769 26.6546 409.478 25.7633 410.399 25.0858H410.346C411.268 24.4797 412.225 23.9805 413.218 23.5883C414.21 23.1961 415.167 23 416.089 23H427.681ZM426.352 60.1169C427.664 60.1169 428.585 59.7425 429.117 58.9938C429.649 58.245 429.915 57.4071 429.915 56.4801V31.9851C429.915 31.0937 429.649 30.2736 429.117 29.5249C428.585 28.7761 427.664 28.4017 426.352 28.4017H417.419C416.107 28.4017 415.185 28.7761 414.653 29.5249C414.122 30.2736 413.856 31.0937 413.856 31.9851V56.4801C413.856 57.4071 414.122 58.245 414.653 58.9938C415.185 59.7425 416.107 60.1169 417.419 60.1169H426.352Z" fill="black"/>
<path d="M458.493 63.3259C458.493 65.0373 457.43 65.893 455.303 65.893C453.211 65.893 452.165 65.0373 452.165 63.3259V28.4017H442.859C441.583 28.4017 440.91 27.4925 440.839 25.6741C440.839 23.8914 441.512 23 442.859 23H467.799C469.146 23 469.784 23.8914 469.713 25.6741C469.713 27.4925 469.075 28.4017 467.799 28.4017H458.493V63.3259Z" fill="black"/>
<path d="M477.87 65.5187C476.558 65.5187 475.672 65.1799 475.211 64.5025C474.75 63.825 474.519 63.0763 474.519 62.2562V26.209C474.519 25.3889 474.75 24.658 475.211 24.0162C475.672 23.3387 476.558 23 477.87 23H496.375C497.686 23 498.378 23.8914 498.449 25.6741C498.52 27.4925 497.828 28.4017 496.375 28.4017H480.794V60.1169H497.332C498.644 60.1169 499.317 60.9905 499.353 62.7376C499.424 64.5916 498.75 65.5187 497.332 65.5187H477.87ZM494.407 43.3769C494.407 44.6248 493.964 45.6766 493.078 46.5323C492.227 47.3881 491.181 47.8159 489.941 47.8159C488.735 47.8159 487.707 47.3881 486.856 46.5323C486.005 45.6766 485.58 44.6248 485.58 43.3769C485.58 42.1289 486.005 41.0771 486.856 40.2214C487.707 39.3657 488.735 38.9378 489.941 38.9378C491.181 38.9378 492.227 39.3657 493.078 40.2214C493.964 41.0771 494.407 42.1289 494.407 43.3769Z" fill="black"/>
<path d="M520.154 47.8694H516.059C515.456 47.8694 514.978 47.6376 514.623 47.1741C514.304 46.675 514.145 46.0153 514.145 45.1953C514.145 43.3769 514.889 42.4677 516.378 42.4677H522.6C523.911 42.4677 524.833 42.0933 525.365 41.3445C525.897 40.5958 526.162 39.7757 526.162 38.8843V31.9851C526.162 31.0937 525.897 30.2736 525.365 29.5249C524.833 28.7761 523.911 28.4017 522.6 28.4017H511.38V63.2724C511.38 64.9838 510.334 65.8396 508.242 65.8396C506.151 65.8396 505.105 64.9838 505.105 63.2724V26.209C505.105 24.9254 505.424 24.0697 506.062 23.6418C506.736 23.2139 507.533 23 508.455 23H523.929C524.851 23 525.808 23.1961 526.801 23.5883C527.793 23.9805 528.75 24.4797 529.672 25.0858H529.619C530.541 25.7633 531.25 26.6546 531.746 27.7599C532.242 28.8296 532.49 30.0775 532.49 31.5037V39.3122C532.49 42.2002 531.533 44.3574 529.619 45.7836C529.229 46.0688 528.804 46.3362 528.343 46.5858C527.917 46.8354 527.474 47.085 527.013 47.3346L535.521 61.454C535.628 61.6323 535.734 61.864 535.84 62.1493C535.947 62.4345 536 62.6663 536 62.8445C536 63.7002 535.397 64.5203 534.192 65.3047V65.2512C533.377 65.7504 532.685 66 532.118 66C531.303 66 530.647 65.59 530.151 64.7699L530.204 64.8234L520.154 47.8694Z" fill="black"/>
</svg>
