<svg width="30" height="30" viewBox="0 0 30 30" fill="none" xmlns="http://www.w3.org/2000/svg">
<path d="M14.745 2.18871C16.4413 2.18871 18.0851 2.52047 19.6316 3.17478C21.1262 3.8072 22.4694 4.71264 23.6237 5.86632C24.7774 7.02 25.6834 8.36318 26.3152 9.85841C26.9695 11.4049 27.3013 13.0493 27.3013 14.745C27.3013 16.4407 26.9695 18.0851 26.3152 19.6316C25.6828 21.1262 24.7774 22.4694 23.6237 23.6237C22.47 24.7774 21.1268 25.6834 19.6316 26.3152C18.0851 26.9695 16.4407 27.3013 14.745 27.3013C13.0493 27.3013 11.4049 26.9695 9.85841 26.3152C8.36376 25.6828 7.02058 24.7774 5.86632 23.6237C4.71264 22.47 3.80663 21.1268 3.17478 19.6316C2.52047 18.0851 2.18871 16.4407 2.18871 14.745C2.18871 13.0493 2.52047 11.4049 3.17478 9.85841C3.8072 8.36376 4.71264 7.02058 5.86632 5.86632C7.02 4.71264 8.36318 3.80663 9.85841 3.17478C11.4049 2.52047 13.0493 2.18871 14.745 2.18871ZM14.745 0C6.60184 0 0 6.60184 0 14.745C0 22.8882 6.60184 29.49 14.745 29.49C22.8882 29.49 29.49 22.8887 29.49 14.745C29.49 6.60127 22.8882 0 14.745 0Z" fill="#FF9900"/>
<path d="M20.9604 15.8474H14.745C14.1408 15.8474 13.6506 15.3572 13.6506 14.753V6.15832C13.6506 5.55412 14.1408 5.06396 14.745 5.06396C15.3492 5.06396 15.8393 5.55412 15.8393 6.15832V13.6587H20.9604C21.5646 13.6587 22.0547 14.1488 22.0547 14.753C22.0547 15.3572 21.5646 15.8474 20.9604 15.8474Z" fill="#FF9900"/>
</svg>
