<svg width="33" height="28" viewBox="0 0 33 28" fill="none" xmlns="http://www.w3.org/2000/svg">
<path d="M16.5001 6.56006C14.8782 6.56006 13.2929 7.04098 11.9444 7.94201C10.5959 8.84304 9.54488 10.1237 8.92424 11.6221C8.3036 13.1204 8.14121 14.7692 8.45761 16.3598C8.77401 17.9504 9.55499 19.4115 10.7018 20.5583C11.8486 21.7051 13.3097 22.4861 14.9003 22.8025C16.491 23.1189 18.1397 22.9565 19.6381 22.3359C21.1364 21.7152 22.4171 20.6642 23.3181 19.3157C24.2191 17.9673 24.7001 16.3819 24.7001 14.7601C24.7001 12.5853 23.8361 10.4996 22.2983 8.96178C20.7605 7.42398 18.6748 6.56006 16.5001 6.56006ZM16.5001 21.3201C15.2026 21.3201 13.9343 20.9353 12.8555 20.2145C11.7767 19.4937 10.9359 18.4691 10.4394 17.2705C9.94289 16.0718 9.81298 14.7528 10.0661 13.4803C10.3192 12.2078 10.944 11.0389 11.8614 10.1214C12.7789 9.20401 13.9477 8.57923 15.2203 8.32611C16.4928 8.07299 17.8118 8.2029 19.0105 8.69941C20.2091 9.19592 21.2337 10.0367 21.9545 11.1155C22.6753 12.1943 23.0601 13.4626 23.0601 14.7601C23.0601 16.4999 22.3689 18.1684 21.1387 19.3987C19.9084 20.6289 18.2399 21.3201 16.5001 21.3201Z" fill="#FF9900"/>
<path d="M27.1601 3.28H23.5685L22.8879 1.9188C22.576 1.36095 22.1268 0.891931 21.583 0.556155C21.0391 0.22038 20.4186 0.0289541 19.7801 0H13.2201C12.5816 0.0289541 11.9611 0.22038 11.4172 0.556155C10.8734 0.891931 10.4242 1.36095 10.1123 1.9188L9.4317 3.28H5.8401C4.31776 3.28 2.85776 3.88475 1.7813 4.96121C0.704846 6.03767 0.100098 7.49766 0.100098 9.02V22.14C0.100098 23.6623 0.704846 25.1223 1.7813 26.1988C2.85776 27.2753 4.31776 27.88 5.8401 27.88H27.1601C28.6824 27.88 30.1424 27.2753 31.2189 26.1988C32.2953 25.1223 32.9001 23.6623 32.9001 22.14V9.02C32.9001 7.49766 32.2953 6.03767 31.2189 4.96121C30.1424 3.88475 28.6824 3.28 27.1601 3.28ZM31.2601 22.14C31.2601 23.2274 30.8281 24.2702 30.0592 25.0391C29.2903 25.808 28.2475 26.24 27.1601 26.24H5.8401C4.75271 26.24 3.70986 25.808 2.94096 25.0391C2.17206 24.2702 1.7401 23.2274 1.7401 22.14V9.02C1.7401 7.93261 2.17206 6.88976 2.94096 6.12086C3.70986 5.35196 4.75271 4.92 5.8401 4.92H9.9401C10.0915 4.91954 10.2399 4.87716 10.3687 4.79756C10.4975 4.71795 10.6018 4.60423 10.6699 4.469L11.5801 2.6568C11.7522 2.36851 11.991 2.12572 12.2763 1.94879C12.5617 1.77187 12.8853 1.66597 13.2201 1.64H19.7801C20.1149 1.66597 20.4385 1.77187 20.7239 1.94879C21.0092 2.12572 21.248 2.36851 21.4201 2.6568L22.3303 4.469C22.3984 4.60423 22.5027 4.71795 22.6315 4.79756C22.7603 4.87716 22.9087 4.91954 23.0601 4.92H27.1601C28.2475 4.92 29.2903 5.35196 30.0592 6.12086C30.8281 6.88976 31.2601 7.93261 31.2601 9.02V22.14Z" fill="#FF9900"/>
</svg>
