<svg width="24" height="24" viewBox="0 0 24 24" fill="none" xmlns="http://www.w3.org/2000/svg">
<path opacity="0.5" fill-rule="evenodd" clip-rule="evenodd" d="M7.2 0C6.53726 0 6 0.537264 6 1.2V2.4H18V1.2C18 0.537264 17.4628 0 16.8 0H7.2ZM7.2 16.8C6.53726 16.8 6 17.3372 6 18V22.8C6 23.4628 6.53726 24 7.2 24H16.8C17.4628 24 18 23.4628 18 22.8V18C18 17.3372 17.4628 16.8 16.8 16.8H7.2Z" fill="white"/>
<path fill-rule="evenodd" clip-rule="evenodd" d="M1.00508e-10 16.8C-1.19999e-05 18.1256 1.07452 19.2 2.4 19.2H3.59999V15.6C3.59999 14.9373 4.13725 14.4 4.79999 14.4H19.2C19.8627 14.4 20.4 14.9373 20.4 15.6V19.2H21.6C22.9255 19.2 24 18.1256 24 16.8V7.20005C24 5.87456 22.9255 4.80005 21.6 4.80005H2.40004C1.07456 4.80005 4.8049e-05 5.87456 3.6049e-05 7.20004L1.00508e-10 16.8ZM19.2 7.20005C18.5372 7.20005 18 7.73731 18 8.40005C18 9.06278 18.5372 9.60005 19.2 9.60005H20.4C21.0627 9.60005 21.6 9.06278 21.6 8.40005C21.6 7.73731 21.0627 7.20005 20.4 7.20005H19.2Z" fill="white"/>
</svg>
