<svg width="38" height="38" viewBox="0 0 38 38" fill="none" xmlns="http://www.w3.org/2000/svg">
<path d="M0.12015 3.48584L2.65449 7.92062C2.69681 7.99477 2.7537 8.0596 2.82173 8.1112C2.88975 8.16279 2.96752 8.20009 3.05034 8.22086L5.41474 8.81199L13.524 16.9212L14.4201 16.0254L6.18382 7.78952C6.10279 7.70825 6.00117 7.65059 5.88985 7.62272L3.61805 7.05273L1.46034 3.27474L3.31021 1.42481L7.08973 3.58466L7.65998 5.85645C7.68769 5.96793 7.74527 6.06975 7.82651 6.15095L16.0628 14.3872L16.9585 13.4912L8.84926 5.38188L8.25812 3.01881C8.23738 2.93588 8.20009 2.858 8.14849 2.78984C8.0969 2.72168 8.03207 2.66464 7.95788 2.62216L3.52284 0.0880892C3.40242 0.0196294 3.26287 -0.00747527 3.12557 0.0109251C2.98828 0.0293255 2.86079 0.0922167 2.76264 0.18997L0.228636 2.72431C0.129507 2.82176 0.065183 2.94911 0.0455784 3.08673C0.0259738 3.22434 0.0521776 3.36459 0.12015 3.48584ZM26.4601 12.4862L12.5222 26.4243L11.6261 25.5282L25.5643 11.5905L26.4601 12.4862ZM10.0828 26.9174C10.0265 26.8236 9.94684 26.7461 9.85165 26.6922C9.75646 26.6384 9.64896 26.6101 9.5396 26.6101H5.7384C5.62909 26.6101 5.52163 26.6384 5.4265 26.6922C5.33137 26.7461 5.25181 26.8237 5.19557 26.9174L3.2948 30.085C3.23558 30.1836 3.2043 30.2964 3.2043 30.4113C3.2043 30.5263 3.23558 30.6391 3.2948 30.7376L5.19557 33.9052C5.25186 33.9989 5.33143 34.0765 5.42655 34.1303C5.52167 34.1841 5.6291 34.2125 5.7384 34.2125H9.5396C9.64894 34.2125 9.75641 34.1842 9.85157 34.1303C9.94674 34.0765 10.0264 33.9989 10.0827 33.9052L11.9832 30.7376C12.0424 30.6391 12.0737 30.5263 12.0737 30.4113C12.0737 30.2964 12.0424 30.1836 11.9832 30.085L10.0828 26.9174ZM9.18125 32.9454H6.09701L4.57654 30.4114L6.09708 27.8771H9.18125L10.7017 30.4114L9.18125 32.9454Z" fill="#5C5C5C"/>
<path d="M30.4466 15.2063C34.6308 15.2204 38.0346 11.8396 38.0486 7.65526C38.0507 7.01842 37.9725 6.38385 37.8159 5.76656C37.7315 5.42696 37.3877 5.22027 37.0481 5.30473C36.9367 5.3326 36.8349 5.39015 36.7536 5.47126L32.8098 9.41238L29.6808 8.36962L28.6373 5.24142L32.581 1.2969C32.6605 1.21745 32.7173 1.11832 32.7458 1.00966C32.7743 0.900996 32.7734 0.786718 32.7431 0.678533C32.7129 0.570349 32.6544 0.472148 32.5737 0.393997C32.4931 0.315846 32.393 0.260553 32.2839 0.233787C28.2261 -0.793826 24.1037 1.66252 23.0761 5.72013C22.92 6.33572 22.8421 6.96854 22.8441 7.60362C22.8457 8.10248 22.8971 8.59974 22.9982 9.08813L9.12342 22.9628C8.63505 22.862 8.13783 22.8104 7.63918 22.8087C3.44026 22.8087 0.036499 26.2124 0.036499 30.4114C0.036499 34.6101 3.44026 38.0137 7.63918 38.0137C11.8378 38.0137 15.2415 34.61 15.2415 30.4114C15.24 29.9127 15.1884 29.4153 15.0875 28.9269L18.4092 25.6052L19.8619 27.0579C19.9807 27.1767 20.1418 27.2434 20.3099 27.2434C20.4779 27.2434 20.639 27.1767 20.7579 27.0579L21.0745 26.741C21.3524 26.465 21.8014 26.465 22.0792 26.741C22.3568 27.0178 22.3573 27.4671 22.0805 27.7447L21.7626 28.0626C21.5152 28.3099 21.5152 28.7111 21.7626 28.9584L29.3201 36.5159C31.3079 38.5219 34.5453 38.5365 36.5513 36.5487C38.5571 34.5609 38.5717 31.3232 36.584 29.3175C36.5733 29.3065 36.5623 29.2956 36.5513 29.2846L28.9939 21.7273C28.7465 21.48 28.3454 21.48 28.0981 21.7273L27.7815 22.044C27.5034 22.3203 27.0546 22.3203 26.7765 22.044C26.4992 21.7672 26.4984 21.3179 26.7752 21.0406L27.0934 20.7223C27.3408 20.4751 27.3408 20.0739 27.0934 19.8266L25.6407 18.3739L28.9623 15.0522C29.4507 15.1531 29.9479 15.2047 30.4466 15.2063ZM32.9357 36.7468C32.4755 36.7461 32.0192 36.6628 31.5883 36.501L36.5362 31.5528C37.2829 33.5391 36.2782 35.7544 34.292 36.501C33.8584 36.664 33.3989 36.7473 32.9357 36.7468ZM25.7584 20.2809C25.0568 21.1178 25.1668 22.3651 26.0037 23.0665C26.7392 23.6828 27.8111 23.6823 28.5458 23.0646L35.6556 30.1807C35.7327 30.2581 35.8049 30.3396 35.8748 30.4225L30.458 35.8393C30.3741 35.7698 30.2933 35.6967 30.2158 35.6201L23.1006 28.5044C23.8022 27.6675 23.6922 26.4201 22.8554 25.7188C22.1199 25.1021 21.0477 25.103 20.313 25.7203L19.2994 24.7068L24.7446 19.2696L25.7584 20.2809ZM28.3167 13.9089L13.9446 28.2781C13.8672 28.3555 13.8111 28.4516 13.7817 28.5571C13.7524 28.6626 13.7509 28.7739 13.7773 28.8801C14.6465 32.2935 12.5839 35.7653 9.17026 36.6343C5.75689 37.5033 2.28514 35.4408 1.41592 32.0271C0.547036 28.6138 2.60953 25.142 6.02324 24.2729C7.0558 24.0102 8.1377 24.0102 9.17026 24.2729C9.27652 24.2989 9.38766 24.2972 9.49307 24.2679C9.59847 24.2387 9.69461 24.1828 9.77227 24.1058L24.141 9.73637C24.2184 9.659 24.2744 9.5629 24.3036 9.45742C24.3328 9.35195 24.3341 9.24071 24.3075 9.13456C23.4443 5.76109 25.4792 2.32658 28.8528 1.46316C29.4904 1.30012 30.1495 1.23785 30.8064 1.27861L27.4644 4.62193C27.3812 4.70502 27.3228 4.80964 27.2957 4.92407C27.2687 5.0385 27.274 5.15821 27.3111 5.26977L28.5781 9.07125C28.6093 9.1645 28.6618 9.24922 28.7314 9.31869C28.801 9.38817 28.8858 9.44051 28.9791 9.47156L32.7806 10.7387C32.8921 10.7758 33.0118 10.7812 33.1262 10.7543C33.2406 10.7273 33.3453 10.669 33.4285 10.586L36.7704 7.244C36.778 7.36372 36.7819 7.48365 36.782 7.60362C36.7997 11.0848 33.9922 13.9211 30.5111 13.9392C29.9729 13.9418 29.4366 13.8756 28.9153 13.7421C28.8091 13.7156 28.6978 13.717 28.5924 13.7461C28.4869 13.7753 28.3907 13.8313 28.3133 13.9087L28.3167 13.9089Z" fill="#5C5C5C"/>
<path d="M32.7958 31.8637L31.8997 32.7598L25.5646 26.4246L26.4603 25.5285L32.7958 31.8637Z" fill="#5C5C5C"/>
</svg>
