<svg width="39" height="33" viewBox="0 0 39 33" fill="none" xmlns="http://www.w3.org/2000/svg">
<path d="M29.5516 7.85908C28.9902 5.61518 27.6953 3.62314 25.8724 2.19927C24.0496 0.775406 21.8033 0.00134481 19.4902 1.75069e-06C17.1772 -0.00134131 14.93 0.770111 13.1055 2.19186C11.2809 3.6136 9.98371 5.60414 9.41975 7.84739C6.75953 8.09705 4.29772 9.36189 2.54569 11.3792C0.79366 13.3965 -0.113925 16.0112 0.0114567 18.6801C0.136839 21.3491 1.28555 23.8672 3.21898 25.7114C5.15242 27.5555 7.72196 28.584 10.3939 28.5832H14.2904C14.6348 28.5832 14.9652 28.4463 15.2088 28.2028C15.4523 27.9592 15.5892 27.6288 15.5892 27.2844C15.5892 26.9399 15.4523 26.6095 15.2088 26.3659C14.9652 26.1224 14.6348 25.9855 14.2904 25.9855H10.3939C9.37048 25.9885 8.35653 25.7899 7.4099 25.401C6.46327 25.0121 5.60251 24.4406 4.87675 23.7191C3.41103 22.2619 2.5842 20.2821 2.57817 18.2153C2.57214 16.1485 3.38741 14.1639 4.84461 12.6982C6.30181 11.2324 8.28159 10.4056 10.3484 10.3996C10.6817 10.4247 11.0124 10.3251 11.2764 10.1201C11.5404 9.91518 11.7188 9.61948 11.7771 9.29039C12.0416 7.43574 12.9663 5.73877 14.3814 4.51114C15.7965 3.2835 17.6071 2.60761 19.4805 2.60761C21.3539 2.60761 23.1644 3.2835 24.5795 4.51114C25.9946 5.73877 26.9193 7.43574 27.1838 9.29039C27.2518 9.60805 27.4278 9.89228 27.682 10.0946C27.9362 10.2969 28.2527 10.4047 28.5775 10.3996C30.6443 10.3996 32.6265 11.2206 34.0879 12.6821C35.5494 14.1436 36.3704 16.1257 36.3704 18.1926C36.3704 20.2594 35.5494 22.2416 34.0879 23.703C32.6265 25.1645 30.6443 25.9855 28.5775 25.9855H24.681C24.3365 25.9855 24.0061 26.1224 23.7626 26.3659C23.519 26.6095 23.3822 26.9399 23.3822 27.2844C23.3822 27.6288 23.519 27.9592 23.7626 28.2028C24.0061 28.4463 24.3365 28.5832 24.681 28.5832H28.5775C31.2298 28.5554 33.7712 27.5143 35.6807 25.6733C37.5902 23.8322 38.7233 21.3306 38.8479 18.681C38.9724 16.0314 38.0789 13.4345 36.3505 11.4224C34.6221 9.41038 32.1897 8.13551 29.5516 7.85908Z" fill="#FF9900"/>
<path d="M25.0617 19.1109C25.3067 19.3475 25.6348 19.4784 25.9753 19.4754C26.3159 19.4725 26.6416 19.3359 26.8825 19.095C27.1233 18.8542 27.2599 18.5285 27.2628 18.1879C27.2658 17.8474 27.1349 17.5193 26.8983 17.2743L20.4041 10.7802C20.1606 10.5367 19.8303 10.3999 19.4859 10.3999C19.1415 10.3999 18.8112 10.5367 18.5676 10.7802L12.0735 17.2743C11.8369 17.5193 11.706 17.8474 11.7089 18.1879C11.7119 18.5285 11.8485 18.8542 12.0893 19.095C12.3301 19.3359 12.6559 19.4725 12.9964 19.4754C13.337 19.4784 13.665 19.3475 13.91 19.1109L18.187 14.8338V31.1809C18.187 31.5253 18.3239 31.8557 18.5675 32.0993C18.811 32.3429 19.1414 32.4797 19.4859 32.4797C19.8303 32.4797 20.1607 32.3429 20.4043 32.0993C20.6479 31.8557 20.7847 31.5253 20.7847 31.1809V14.8338L25.0617 19.1109Z" fill="#FF9900"/>
</svg>
