<svg width="30" height="30" viewBox="0 0 30 30" fill="none" xmlns="http://www.w3.org/2000/svg">
<path d="M22.644 29.4901C20.6113 29.4901 18.9578 27.8365 18.9578 25.8038V11.972C17.9876 11.3557 17.1891 10.504 16.6367 9.49619C16.0842 8.48834 15.7957 7.35709 15.7981 6.20775C15.7958 4.94629 16.1434 3.70891 16.8024 2.63325C17.4614 1.55759 18.4058 0.685819 19.5307 0.114909C19.6914 0.0332273 19.8704 -0.00592428 20.0505 0.00118795C20.2306 0.00830018 20.4059 0.061439 20.5597 0.155537C20.7135 0.249636 20.8406 0.381556 20.9289 0.538719C21.0172 0.695883 21.0638 0.873048 21.0642 1.05332V5.60637L22.644 6.23829L24.2238 5.60637V1.05332C24.2242 0.873048 24.2708 0.695883 24.3591 0.538719C24.4474 0.381556 24.5745 0.249636 24.7283 0.155537C24.8821 0.061439 25.0574 0.00830018 25.2375 0.00118795C25.4176 -0.00592428 25.5966 0.0332273 25.7573 0.114909C26.8822 0.686091 27.8266 1.55807 28.4856 2.63389C29.1445 3.70971 29.4922 4.94722 29.4899 6.2088C29.492 7.35808 29.2034 8.48922 28.6509 9.49703C28.0985 10.5048 27.3002 11.3566 26.3302 11.973V25.8038C26.3302 27.8365 24.6767 29.4901 22.644 29.4901ZM18.9578 3.22926C18.2869 4.05604 17.9045 5.09872 17.9045 6.20775C17.9045 7.9919 18.8956 9.60858 20.4912 10.4259C20.6637 10.5143 20.8085 10.6485 20.9096 10.8139C21.0107 10.9793 21.0642 11.1694 21.0642 11.3632V25.8038C21.0642 26.6749 21.773 27.3837 22.644 27.3837C23.515 27.3837 24.2238 26.6749 24.2238 25.8038V11.3632C24.2238 11.1694 24.2773 10.9793 24.3784 10.8139C24.4795 10.6485 24.6243 10.5143 24.7968 10.4259C25.5757 10.0309 26.2298 9.42762 26.6865 8.68315C27.1431 7.93868 27.3844 7.08216 27.3835 6.2088C27.3854 5.12439 27.0134 4.07246 26.3302 3.23032V6.31939C26.3302 6.75016 26.068 7.13669 25.6688 7.29783L23.0358 8.35104C22.7848 8.4522 22.5043 8.4522 22.2533 8.35104L19.6202 7.29783C19.4248 7.21944 19.2573 7.08438 19.1392 6.91002C19.0212 6.73566 18.958 6.52996 18.9578 6.31939V3.22926Z" fill="#A958FC"/>
<path d="M15.8761 29.49H13.6149C13.0849 29.488 12.5749 29.2871 12.186 28.9271C11.7971 28.567 11.5575 28.074 11.5148 27.5458L11.3821 25.8237C10.6583 25.604 9.95807 25.3133 9.29145 24.9559L7.97915 26.0797C7.5756 26.4231 7.05782 26.6026 6.52828 26.5825C5.99874 26.5624 5.49604 26.3442 5.11967 25.9712L3.51879 24.3693C3.14574 23.9927 2.92751 23.49 2.90723 22.9603C2.88695 22.4307 3.06609 21.9127 3.40925 21.5087L4.53303 20.1975C4.17565 19.5309 3.88495 18.8306 3.66518 18.1069L1.94423 17.9752C1.41605 17.9327 0.923087 17.6934 0.563006 17.3046C0.202925 16.9159 0.0019889 16.406 0 15.8761V13.6138C0 12.5196 0.854156 11.5969 1.94529 11.5137L3.66624 11.3821C3.88531 10.6585 4.17599 9.95919 4.53409 9.29145L3.40925 7.97809C3.066 7.57412 2.88689 7.05601 2.90737 6.52629C2.92785 5.99657 3.14642 5.49384 3.51984 5.11757L5.11862 3.51773C5.49503 3.14447 5.99783 2.92609 6.52755 2.9058C7.05727 2.88552 7.5753 3.06481 7.97915 3.4082L9.29145 4.53198C9.95807 4.17459 10.6583 3.8839 11.3821 3.66413L11.5148 1.94213C11.558 1.41441 11.7977 0.922102 12.1863 0.562507C12.575 0.202912 13.0844 0.00218678 13.6138 0H14.745C15.0243 0 15.2922 0.110963 15.4897 0.308479C15.6872 0.505995 15.7982 0.773884 15.7982 1.05321C15.7982 1.33254 15.6872 1.60043 15.4897 1.79795C15.2922 1.99546 15.0243 2.10643 14.745 2.10643H13.6138L13.4243 4.572C13.4069 4.79551 13.3187 5.00765 13.1725 5.17756C13.0262 5.34747 12.8296 5.46629 12.6112 5.51673C11.5914 5.75166 10.6181 6.15572 9.7317 6.71213C9.54169 6.83185 9.31825 6.88736 9.09431 6.87048C8.87037 6.85361 8.65777 6.76524 8.48785 6.6184L6.60786 5.00803L5.00909 6.60892L6.61945 8.48785C6.91961 8.83752 6.95648 9.34201 6.71213 9.7317C6.15653 10.6185 5.75253 11.5916 5.51673 12.6112C5.46639 12.8298 5.34746 13.0267 5.17731 13.173C5.00715 13.3192 4.79469 13.4073 4.57095 13.4243L2.10643 13.6138V15.8761L4.57095 16.0657C4.79464 16.0828 5.00702 16.171 5.17714 16.3172C5.34726 16.4635 5.46624 16.6602 5.51673 16.8788C5.75166 17.8986 6.15572 18.8719 6.71213 19.7583C6.83118 19.9485 6.88639 20.1717 6.86972 20.3954C6.85305 20.6191 6.76537 20.8317 6.61945 21.0021L5.00909 22.8811L6.60892 24.482L8.48785 22.8716C8.658 22.7252 8.87055 22.6371 9.09437 22.6203C9.31818 22.6034 9.54153 22.6586 9.7317 22.7779C10.6248 23.3361 11.5938 23.7384 12.6112 23.9733C12.8296 24.0237 13.0262 24.1425 13.1725 24.3124C13.3187 24.4823 13.4069 24.6945 13.4243 24.918L13.6138 27.3836H15.8751C15.8847 27.2449 15.9217 27.1095 15.9839 26.9852C16.0461 26.8608 16.1322 26.7501 16.2375 26.6592C16.3427 26.5684 16.4648 26.4993 16.5969 26.4558C16.7289 26.4124 16.8683 26.3956 17.0069 26.4063C17.1455 26.417 17.2806 26.455 17.4044 26.5182C17.5282 26.5814 17.6383 26.6684 17.7283 26.7744C17.8184 26.8803 17.8865 27.003 17.9289 27.1354C17.9713 27.2678 17.987 27.4072 17.9752 27.5458C17.9325 28.0739 17.6931 28.5667 17.3044 28.9267C16.9156 29.2867 16.406 29.4878 15.8761 29.49Z" fill="#A958FC"/>
<path d="M7.3726 14.7452C7.36694 13.001 7.98214 11.3117 9.10811 9.97968C10.2341 8.64762 11.7973 7.75971 13.5181 7.47486C13.6545 7.45136 13.7943 7.45513 13.9293 7.48596C14.0643 7.51678 14.1918 7.57405 14.3045 7.65445C14.4172 7.73485 14.5129 7.8368 14.586 7.95439C14.6591 8.07198 14.7081 8.20289 14.7303 8.33955C14.7764 8.61496 14.7111 8.89736 14.549 9.12468C14.3868 9.352 14.141 9.50563 13.8657 9.5518C12.6371 9.75603 11.5212 10.3906 10.7176 11.342C9.91393 12.2935 9.47491 13.4998 9.47902 14.7452C9.47902 18.3819 13.0915 20.9181 16.5008 19.7122C16.7613 19.6293 17.0438 19.651 17.2886 19.7726C17.5334 19.8942 17.7213 20.1063 17.8126 20.3639C17.904 20.6215 17.8916 20.9045 17.7781 21.1532C17.6646 21.4019 17.4588 21.5966 17.2043 21.6964C12.4091 23.3931 7.3726 19.8175 7.3726 14.7452Z" fill="#A958FC"/>
</svg>
